<?xml version="1.0" encoding="utf-8"?>
<!-- Generator: Adobe Illustrator 18.0.0, SVG Export Plug-In . SVG Version: 6.00 Build 0)  -->
<!DOCTYPE svg PUBLIC "-//W3C//DTD SVG 1.1//EN" "http://www.w3.org/Graphics/SVG/1.1/DTD/svg11.dtd">
<svg version="1.1" id="Layer_1" xmlns="http://www.w3.org/2000/svg" xmlns:xlink="http://www.w3.org/1999/xlink" x="0px" y="0px"
	 viewBox="0 339.4 595.3 503.3" enable-background="new 0 339.4 595.3 503.3" xml:space="preserve">
<g>
	<path fill="#FF6347" d="M494.7,540.6c-16.2-52.8-48-83-79.9-100.3c-8.3,3-14.6,4.2-14.6,4.2c19.5,8.5,22.4,30.5,22.4,30.5
		c-40.1,7.1-73.1-9.6-73.1-9.6c4.6,20.6-5.7,34.8-5.7,34.8c-34.1-6-54.7-39.7-54.7-39.7c-22.4,2.1-42.2,33.7-42.2,33.7
		c-23.4-12.1-17-44.7-17-44.7c-19,0.4-33.2-5-41.8-9.6c-61.8,37.9-92.6,109.9-79.9,171c1.9,9.2,4.6,18.3,7.9,27.2
		c10.3,2.2,32.1,5.5,51-1.5l5.2,16.3c0,0-21.8,8-46.5,6.4l1.7,3.7c28.5,51.5,81.7,90,150.1,100c0.2-5.6-2-15.5-16.7-26.8l5.6-8.2
		c0,0,21.7,11.1,25.8,36.7c19,1.6,39,1,60-2.1C480.6,743.6,534,668.5,494.7,540.6z"/>
	<path fill="#FF6347" d="M551.4,649.8c-3.7-2.3-8.2-2.2-11.7-0.2c-9.5-15-30.7-44.5-57.9-61.3c-1.8-1.1-3.6-2.2-5.5-3.2l-1.2,2.3
		c29.4,15.7,52.5,48,62.4,63.7c-0.8,0.7-1.5,1.5-2,2.4c-3.3,5.4-1.7,12.5,3.8,15.9c5.4,3.3,12.5,1.7,15.9-3.8
		C558.5,660.3,556.8,653.2,551.4,649.8z"/>
	<path fill="#FF6347" d="M496.5,812.2c-8.8-4.5-18.4-1.5-23.9,1.1c-0.4-9.2-1.8-32.7-5.9-48.4c-5.3-20-27.1-40.4-28-41.2l-1.8,1.9
		c0.2,0.2,22.1,20.7,27.2,40c4.3,16.2,5.6,40.9,5.9,49c-1.2,0.7-1.9,1.1-1.9,1.1c-7,6.6,24.8,16.3,31.8,14.9
		C507,829.2,509.8,819,496.5,812.2z"/>
	<path fill="#FF6347" d="M390.9,450.6c-11.4-4.8-24.4-18.5-24.4-18.5s10.5,2.2,25,0c14.5-2.2,23.1-16.2,23.1-16.2
		s-11.9,3.3-27.3,2.9c-15.4-0.4-35.4-6.1-35.4-6.1c8.3-15.6,33.2-24.4,33.2-24.4s-11-4.2-30.5-1.5c-13.7,1.9-27.1,10.9-34.1,16
		c0.9-7,1.9-17,1.8-28.5c-0.2-22-5.3-34.9-5.3-34.9c-15.6-2.6-26.6,11.9-26.6,11.9s6.6,5,11.4,17.3c3,7.6,4.9,22.4,5.9,32.5
		c-32.7-19.6-69.6-19.4-69.6-19.4c13.9,6.8,20.6,32.6,20.6,32.6c-19.1,6.5-65.9,0-65.9,0s0.7,4.1,17.6,17
		c16.9,12.8,44.2,3.1,44.2,3.1s-6.1,5-11.2,20.2c-5.1,15.2,3.1,23.1,2.9,22.2c-0.2-0.9,6.6-13,18.7-22.6c12.1-9.5,31-12.5,31-12.5
		c7.9,38.4,43.9,44.4,43.9,44.4s1.1-8.1,0.7-15.8c-0.4-7.7-10.5-31.6-10.5-31.6s16.9,16.7,35,21.8s46.2,6.4,46.2,6.4
		S402.3,455.4,390.9,450.6z"/>
	<circle fill="#C82233" cx="458.7" cy="576.5" r="16.5"/>
	<circle fill="#C82233" cx="249.2" cy="593" r="16.5"/>
	<path fill="#FF6347" d="M281.4,782.5c14.4-32.3-14.1-49.3-14.3-49.5l-1.3,2.3c0.1,0,6.8,4,11.7,11.7c6.7,10.2,7.2,21.8,1.5,34.5
		c-11.3,25.5-27.1,35.2-32.1,37.7c-1.3,0.1-2.5,0.2-3.2,0.5c-2.7,1.2,0.2,10.6,11.3,18.5c11.1,7.9,21.9,5.2,23.9-5.4
		c2-10.6-22.7-13.1-22.7-13.1s-1.9-0.2-4.3-0.4C259.3,814.7,271.8,804.2,281.4,782.5z"/>
	<path fill="#F2D4C7" d="M352.6,647.2l56-1.5c0,0-14.8,23.4-15.2,23.4c-0.4,0-20.2,2.8-20.2,2.8L352.6,647.2z"/>
	<path fill="#C82233" d="M404.2,645.8l-17.9,24.3c3.8-0.5,7-1,7.1-1c0.4,0,15.2-23.4,15.2-23.4L404.2,645.8z"/>
	<polygon fill="#C82233" points="364.6,661.6 371.2,669.5 390.5,646.2 378.2,646.5 	"/>
	<path fill="#F2D4C7" d="M368.7,666.4c0,0,23.5-3.4,26-3.3c2.5,0.1,9.3,15.4,12.7,28.7c3.4,13.2,7.2,48.1,6.7,50.8
		c-0.5,2.7-36.2,35.7-37.7,35.8c-1.6,0.1-36.3-27.2-36.5-28.6c-0.2-1.4,19.2-37,25.2-53.2C371.1,680.3,368.7,666.4,368.7,666.4z"/>
	<path fill="#C82233" d="M399.1,669.1c-1.8-3.7-3.5-6-4.4-6.1c-2.5-0.1-26,3.3-26,3.3s2.2,12.9-3,28.3
		C374.5,688.5,389.8,677.2,399.1,669.1z"/>
	<path fill="#C82233" d="M358.1,712.3c-5.2,11-11.5,23.2-15.2,30.6c16.7-11,53.2-35.5,65.3-47.4c-0.3-1.4-0.6-2.7-0.9-3.8
		c-1.4-5.2-3.2-10.8-5.2-15.6C393.2,684.5,374.1,701.7,358.1,712.3z"/>
	<path fill="#C82233" d="M364.7,770c10.4-6.4,36.8-23.7,48.6-39.6c-0.7-7.1-1.9-16.3-3.1-24.3c-13.4,12.9-44.6,41.7-63.6,49.6
		C351.6,759.8,358.7,765.4,364.7,770z"/>
	<path fill="#FF6347" d="M89.1,632.5c2.4-3.3,3-7.7,1.2-11.6c-2.7-5.7-9.5-8.3-15.3-5.7c-5.7,2.7-8.3,9.4-5.7,15.3
		c2.7,5.7,9.4,8.3,15.3,5.7c1.1-0.5,1.9-1.1,2.7-1.7c4.8,2.7,12.1,6.5,20.8,9.6c14.6,5.4,36.2,10.4,55.8,3.4L163,645
		C135.2,654.9,102.9,640.1,89.1,632.5z"/>
	<path fill="#C82233" d="M388.1,606.1l-0.5-0.1l-0.1,0.5c0,0-0.5,3.3-2.4,6.7c-2.4,4-5.9,6.1-10.3,6.1c-0.2,0-0.4,0-0.6,0
		c-11.2-0.3-13.9-9.6-14.1-10.6l-0.1-0.5l-3.5,0.8v0.4c0,0.2,0.8,3.5,3.3,6.7c1.8,2.5,6.1,6.7,14.2,6.9h0.5
		c12.3,0,15.8-12,16.5-15.7l0.3-0.7L388.1,606.1z"/>
</g>
<path fill="#FF6347" d="M524.4,439L524.4,439l-6.2-35.2c0,0-1-3.1-5.5-1.7L490,413.8c0,0-3.5,2.2-3.1,6.5c0.3,3.5,3.2,19,4.4,25.2
	c-2.4-0.5-5.3-0.1-8,1.4c-4.8,2.7-7.1,7.9-5,11.6s7.7,4.5,12.5,1.7c3.9-2.2,6.2-6.1,5.7-9.4l0,0l0,0c0-0.2-0.1-0.3-0.1-0.5
	l-3.5-20.2c0,0-0.8-2.6,2.1-4.1c2.9-1.5,18.7-9.8,18.7-9.8s2.4-1.6,3.3,1c0.6,1.9,2.2,11.9,3.1,17.2c-2.6-0.8-5.8-0.5-8.8,1.2
	c-4.8,2.7-7.1,7.9-5,11.6c2.1,3.7,7.7,4.5,12.5,1.7C523,446.6,525.2,442.4,524.4,439z"/>
<path fill="#FF6347" d="M84.8,522.1L84.8,522.1l-6.2-35.2c0,0-1-3.1-5.5-1.7l-22.7,11.7c0,0-3.5,2.2-3.1,6.5
	c0.3,3.5,3.2,19,4.4,25.2c-2.4-0.5-5.3-0.1-8,1.4c-4.8,2.7-7.1,7.9-5,11.6c2.1,3.7,7.7,4.5,12.5,1.7c3.9-2.2,6.2-6.1,5.7-9.4l0,0
	l0,0c0-0.2-0.1-0.3-0.1-0.5l-3.5-20.2c0,0-0.8-2.6,2.1-4.1c2.9-1.5,18.7-9.8,18.7-9.8s2.4-1.6,3.3,1c0.6,1.9,2.2,11.9,3.1,17.2
	c-2.6-0.8-5.8-0.5-8.8,1.2c-4.8,2.7-7.1,7.9-5,11.6s7.7,4.5,12.5,1.7C83.4,529.8,85.6,525.5,84.8,522.1z"/>
<path fill="#FF6347" d="M116.4,405.9l-14,41.5c-1.2-0.9-2.5-1.6-4-2.1c-5.8-2-11.7,0-13.1,4.3c-1.5,4.3,2.1,9.4,7.9,11.4
	c5.8,2,11.7,0,13.1-4.3l13.7-40.8c0,0,10.2,5.1,11,10.5c0.9,5.4-5.5,10.1-5.5,10.1s7.5-0.7,10.5-5.9
	C139,425.3,128.5,409.4,116.4,405.9z"/>
<path fill="#FF6347" d="M524.2,481.9l0.9,43.7c-1.4-0.4-2.9-0.7-4.5-0.6c-6.1,0.1-11,3.9-10.9,8.5c0.1,4.6,5.1,8.1,11.2,8
	c6.1-0.1,11-3.9,10.9-8.5l-0.9-42.9c0,0,11.3,1.4,13.9,6.2c2.6,4.8-1.8,11.3-1.8,11.3s6.8-3.2,7.9-9.1
	C552.1,492.5,536.8,481.1,524.2,481.9z"/>
</svg>
